<svg id="Logo" xmlns="http://www.w3.org/2000/svg" viewBox="0 0 1703.76 323.32"><defs><style>.cls-1{fill:#003071;}.cls-2{fill:#fff;}</style></defs><title>CWRU_Acronym logo_RGB Blue</title><path class="cls-1" d="M726.72,376.62a141.57,141.57,0,0,1-45.16,7.16q-33.09,0-59.25-14.09a100.9,100.9,0,0,1-40.92-40.47q-14.76-26.39-14.75-62.6,0-33.56,13.41-59.49a98.68,98.68,0,0,1,38-40.47q24.59-14.52,56.34-14.52a96.65,96.65,0,0,1,46.07,11.4q21.45,11.4,37.56,32.86h2.68V133.35a175.48,175.48,0,0,0-44-17,205.23,205.23,0,0,0-48.52-5.82q-45.18,0-84.07,19.68A155.73,155.73,0,0,0,521.69,187q-23.48,37.11-23.48,86.3,0,48.75,22.36,85.19a148.32,148.32,0,0,0,61,55.9q38.67,19.45,86.08,19.45,31.74,0,58.8-10.95t50.76-33.77l-8.49-33.54A172.65,172.65,0,0,1,726.72,376.62Z" transform="translate(-91.49 -110.54)"/><path class="cls-1" d="M1143.51,119a58.56,58.56,0,0,1,6.27,19,76.69,76.69,0,0,1-.24,21q-1.57,11.4-5.58,28l-40.25,156.51H1101L1041.1,116.8H965.52l9.84,27.28L922.6,344.87h-2.69L879.67,190.14A196,196,0,0,1,873.86,162a82,82,0,0,1,.22-21.91A70.68,70.68,0,0,1,881,119V116.8H786.65V119a157.44,157.44,0,0,1,11,19.23,163.15,163.15,0,0,1,8.71,23.25q4,13.42,8.5,29.07l66.64,237h59.47L1002.64,200h2.68l59.49,227.62h58.58l66.18-239.7q4-14.29,8-27.05a174.34,174.34,0,0,1,8.72-22.58,154.85,154.85,0,0,1,11-19.23V116.8h-73.79Z" transform="translate(-91.49 -110.54)"/><path class="cls-1" d="M1417.55,275.11q26.84-10.73,41.59-30t14.76-44.72q0-25.49-14.31-44.27t-40.47-29.07q-26.16-10.29-61-10.29H1240.91V119a54.85,54.85,0,0,1,8.72,16.77,91.76,91.76,0,0,1,3.81,20.12q.87,11,.88,27.06V359.18q0,17-1.11,28.62a96.86,96.86,0,0,1-4,20.57,68.66,68.66,0,0,1-8.27,17v2.24h89.45v-2.24a68.35,68.35,0,0,1-8.28-17,96.24,96.24,0,0,1-4-20.57q-1.12-11.61-1.12-28.62V288.07h23.26L1445.28,427.6h77.81v-.89L1406.56,278.9C1410.32,277.76,1414,276.53,1417.55,275.11Zm-100.62-26.38V156.16H1350q27.26,0,42.92,11.4t15.66,33.32q0,14.75-7.16,25.48t-20.57,16.55q-13.43,5.82-31.75,5.82Z" transform="translate(-91.49 -110.54)"/><path class="cls-1" d="M1721,116.8V119a61.69,61.69,0,0,1,7.83,16.32,112.5,112.5,0,0,1,4.25,21.24,260,260,0,0,1,1.34,28.18V297.47q0,26.83-8.5,46.28t-25.27,30q-16.77,10.51-40.92,10.5-25.48,0-42.48-11.17a65.72,65.72,0,0,1-25-30.86q-8-19.68-8-44.72V184.33a246,246,0,0,1,1.34-28,111.61,111.61,0,0,1,4.25-20.57,69.12,69.12,0,0,1,7.83-16.77V116.8H1507.7V119a69.47,69.47,0,0,1,7.82,16.77,111.59,111.59,0,0,1,4.26,20.57,246,246,0,0,1,1.34,28V296.57q0,44.28,15.65,74.91T1581.71,418q29.28,15.86,70.88,15.87,41.13,0,70.21-16.1t44-46.95q15-30.85,15-74.68V184.78a257.44,257.44,0,0,1,1.34-28.18,111.72,111.72,0,0,1,4.25-21.24,61.67,61.67,0,0,1,7.82-16.32V116.8Z" transform="translate(-91.49 -110.54)"/><rect class="cls-1" y="6.15" width="310.85" height="310.85"/><path class="cls-2" d="M301.44,316.43v-.73L382,292.8l-.17-.86-94.9,11.2-.28-.68L369,238.18l-.48-.73L278.1,288.64l-.52-.52,55.07-96.42-.73-.49-67.79,87.48-.67-.28,14.65-113.77-.86-.17-30,110.59h-.74l-30-110.59-.86.17,14.65,113.77-.68.28L161.9,191.21l-.73.49,55.07,96.42-.52.52-90.4-51.19-.49.73,82.34,64.28-.27.68L112,291.94l-.17.86,80.59,22.81v.73c-33.08,8.23-60.08,22.42-71.76,27.5l.24.93a507.26,507.26,0,0,1,251.86,0l.23-.93C361.33,338.78,334.45,324.66,301.44,316.43Z" transform="translate(-91.49 -110.54)"/></svg>